<svg xmlns="http://www.w3.org/2000/svg" xmlns:xlink="http://www.w3.org/1999/xlink" x="0px" y="0px" viewBox="0 0 100 100" style="enable-background:new 0 0 100 100;" xml:space="preserve">	<g>		<path d="M11.9,91.9c0,2.7,2.1,4.8,4.7,4.8h66.7c2.7,0,4.8-2.1,4.8-4.8V27.8H11.9V91.9z M32.3,42.6c4.7-4.7,11-7.3,17.6-7.3  c6.7,0,12.9,2.6,17.6,7.3c4.7,4.7,7.3,11,7.3,17.6s-2.6,12.9-7.3,17.6c-4.7,4.7-11,7.3-17.6,7.3c-6.7,0-12.9-2.6-17.6-7.3  c-4.7-4.7-7.3-11-7.3-17.6C25,53.5,27.6,47.3,32.3,42.6z"></path>		<path d="M88.1,8c0-2.7-2.2-4.7-4.8-4.7H16.6c-2.7,0-4.7,2.1-4.7,4.7v17.1h76.3V8z M26.1,20.8c-3.1,0-5.6-2.5-5.6-5.6  c0-3.1,2.5-5.6,5.6-5.6c3.1,0,5.6,2.5,5.6,5.6C31.7,18.3,29.2,20.8,26.1,20.8z M39.9,20.8c-3.1,0-5.6-2.5-5.6-5.6  c0-3.1,2.5-5.6,5.6-5.6c3.1,0,5.6,2.5,5.6,5.6C45.5,18.3,43,20.8,39.9,20.8z M56.7,15.3C56.7,15.4,56.7,15.4,56.7,15.3  c0,0.2,0,0.2-0.1,0.3c0,0,0,0,0,0c0,0,0,0.1,0,0.1c0,0,0,0,0,0.1c0,0,0,0,0,0.1c0,0,0,0,0,0.1c0,0,0,0,0,0.1c0,0.1-0.1,0.1-0.1,0.1  c0,0,0,0,0,0c0,0,0,0,0,0c0,0,0,0,0,0c0,0,0,0,0,0c0,0-0.1,0-0.1,0.1c0,0,0,0-0.1,0c0,0,0,0-0.1,0c0,0,0,0-0.1,0c0,0,0,0-0.1,0  c0,0-0.1,0-0.1,0c0,0-0.1,0-0.1,0c0,0,0,0,0,0c0,0-0.1,0-0.1,0c0,0-0.1,0-0.1,0c0,0,0,0-0.1,0c-0.6,0-1.3,0-2,0c-0.7,0-1.3,0-1.9,0  c-0.7,0-1.3-0.6-1.3-1.3c0-0.7,0.6-1.2,1.3-1.2h3.8c0,0,0.1,0,0.1,0c0,0,0,0,0,0c0,0,0,0,0,0c0,0,0,0,0.1,0c0,0,0.1,0,0.1,0  c0,0,0.1,0,0.1,0c0,0,0.1,0,0.1,0c0,0,0,0,0.1,0c0,0,0.1,0,0.1,0.1c0.1,0.1,0.2,0.2,0.3,0.3c0,0,0,0,0,0c0,0,0,0,0,0c0,0,0,0,0,0  c0,0,0,0,0,0.1c0,0,0,0,0,0c0,0,0,0,0,0c0,0,0,0,0,0c0,0,0,0.1,0.1,0.1c0,0,0,0.1,0,0.1c0,0,0-0.1,0-0.1c0,0,0,0,0,0  c0,0,0,0.1,0,0.1c0,0.1,0.1,0.2,0.1,0.2c0,0,0,0.1,0,0.1L56.7,15.3C56.7,15.3,56.7,15.3,56.7,15.3z M62.5,16.7  c-0.7,0-1.4,0.1-2,0.1c0,0,0,0,0,0c-0.5,0-1.1-0.1-1.6-0.1c-0.5,0-0.9-0.3-1.2-0.8c-0.2-0.4-0.2-0.8,0-1.2c0.2-0.4,0.7-0.6,1.1-0.6  h3.6c0.7,0,1.3,0.6,1.3,1.3C63.8,16.1,63.3,16.6,62.5,16.7z M72,16.1c-0.2,0.3-0.6,0.5-1,0.5c-0.6,0-1.2,0-1.7,0  c-0.7,0-1.4,0-2.1,0c-0.7,0-1.3-0.5-1.3-1.3c0-0.7,0.6-1.3,1.3-1.3h3.8c0.6,0,1.1,0.4,1.3,0.9c0,0,0,0,0,0  C72.3,15.4,72.2,15.8,72,16.1z M78.1,16.6c-0.7,0-1.4,0-2.1,0c-0.5,0-1,0-1.6,0c-0.5,0-0.9-0.3-1.2-0.7c0,0,0,0,0,0  c-0.2-0.4-0.2-0.8,0.1-1.2c0.2-0.4,0.7-0.6,1.1-0.6h3.7c0.7,0,1.3,0.5,1.3,1.3C79.4,16,78.8,16.6,78.1,16.6z"></path>		<path d="M50,82.5c12.3,0,22.3-10,22.3-22.3c0-12.3-10-22.3-22.3-22.3c-12.3,0-22.3,10-22.3,22.3C27.7,72.5,37.7,82.5,50,82.5z   M29.1,60.2C29.1,60.2,29.1,60.2,29.1,60.2c0-11.5,9.3-20.9,20.9-20.9c11.5,0,20.9,9.4,20.9,20.9c0,11.5-9.3,20.9-20.9,20.9  S29.1,71.7,29.1,60.2C29.1,60.2,29.1,60.2,29.1,60.2z"></path>		<path d="M42.2,56.3c4.2,0.5,7.3,2.4,10,4.1c2.8,1.7,5.1,3.2,8.3,3c2.6-0.2,5.2-1.5,7.7-3.9c-0.4-9.7-8.4-17.5-18.3-17.5  c-9.3,0-17.1,7.1-18.1,16.1C35.4,56.5,38.9,55.9,42.2,56.3z"></path>		<path d="M50,78.5c9.1,0,16.7-6.7,18.1-15.4c-2.3,1.7-4.8,2.7-7.3,2.9c-0.3,0-0.6,0-0.8,0c-3.6,0-6.4-1.7-9-3.4  c-2.6-1.6-5.2-3.3-8.9-3.7c-3.2-0.4-6.7,0.3-10.2,2.1C32.1,70.7,40.1,78.5,50,78.5z"></path>		<path d="M26.1,12.3c-1.6,0-3,1.3-3,3c0,1.6,1.3,3,3,3c1.6,0,3-1.3,3-3C29.1,13.6,27.7,12.3,26.1,12.3z"></path>		<path d="M39.9,12.3c-1.6,0-3,1.3-3,3c0,1.6,1.3,3,3,3c1.6,0,3-1.3,3-3C42.9,13.6,41.5,12.3,39.9,12.3z"></path>	</g></svg>