<svg xmlns="http://www.w3.org/2000/svg" xmlns:xlink="http://www.w3.org/1999/xlink" x="0px" y="0px" viewBox="0 0 100 100" style="enable-background:new 0 0 100 100;" xml:space="preserve">	<g>		<rect x="50.7" y="15.7" transform="matrix(0.9999 -1.034651e-02 1.034651e-02 0.9999 -0.3388 0.5552)" width="5.5" height="34.7"></rect>		<path d="M41.7,63.3c-3.6,11.9-11.6,19.6-14.8,22.4c3.1,2.3,6.1,4.2,9,5.6c1.6-1.4,5.6-5.4,8.1-11.6c0.3-0.7,1.1-1,1.8-0.7  c0.7,0.3,1,1.1,0.7,1.8c-2.2,5.3-5.3,9.1-7.4,11.2c-0.2,0.2-0.4,0.4-0.6,0.6c4.3,1.8,8.3,2.8,12,3.2c1.8-6,2.5-15.5,2.5-15.6  c0.1-0.7,0.7-1.3,1.5-1.3c0.7,0.1,1.3,0.7,1.3,1.5c0,0.4-0.7,9.3-2.5,15.6c3.3,0.1,6.4-0.2,9-0.7c0.3-8.9-1.3-15.3-1.4-15.4  c-0.2-0.7,0.2-1.5,1-1.7c0.7-0.2,1.5,0.2,1.7,1c0.1,0.3,1.7,6.5,1.5,15.5c4-1.1,6.9-2.5,8.1-3.2C71.7,78.5,69,69,66.8,63l-24.2,0.3  C42.6,63.3,41.7,63.3,41.7,63.3z M48.2,75.3c-0.1,0.3-0.2,0.7-0.2,1c-0.1,0.2-0.2,0.4-0.3,0.6c-0.3,0.3-0.8,0.5-1.3,0.4  c-0.7-0.2-1.2-0.9-1-1.7c0.1-0.3,0.2-0.6,0.2-0.9c0.2-0.7,0.9-1.2,1.6-1C47.9,73.8,48.4,74.5,48.2,75.3L48.2,75.3z"></path>		<path d="M49.1,53.1c-3.1,0-5.7,2.3-6.3,5.5c-0.1,0.6-0.2,1.2-0.4,1.9l23.3-0.2c-0.5-1.3-1.1-2.6-1.6-3.7c-1.1-2.2-3.3-3.6-5.8-3.6  l-0.5,0l-8.2,0.1L49.1,53.1L49.1,53.1z"></path>		<path d="M51.3,4.9L51.3,4.9c-0.5,0.5-0.8,1.2-0.8,1.9l0.1,6.1l5.5-0.1L56,6.8c0-0.7-0.3-1.4-0.8-1.9c-0.5-0.5-1.2-0.8-2-0.8  C52.5,4.1,51.8,4.4,51.3,4.9L51.3,4.9z"></path>	</g></svg>