<svg xmlns="http://www.w3.org/2000/svg" xmlns:xlink="http://www.w3.org/1999/xlink" x="0px" y="0px" viewBox="0 0 100 100" style="enable-background:new 0 0 100 100;" xml:space="preserve">	<g>		<g>			<path d="M82.7,28.2v5.1c0,0.8-0.6,1.5-1.5,1.5H18.8c-0.8,0-1.5-0.7-1.5-1.5v-5.1c0-0.8,0.7-1.5,1.5-1.5h62.4   C82,26.7,82.7,27.4,82.7,28.2z"></path>		</g>		<path d="M72,18.6H60v-3.2c0-2.4-2-4.4-4.4-4.4H44.4c-2.4,0-4.4,2-4.4,4.4v3.2H28c-0.8,0-1.5,0.7-1.5,1.5v3.7h47v-3.7  C73.5,19.3,72.8,18.6,72,18.6z M57,18.6H43v-3.2c0-0.8,0.7-1.5,1.5-1.5h11.2c0.8,0,1.5,0.7,1.5,1.5V18.6z"></path>		<path d="M95.3,92.9H73l5.9-55.2H21.2L27,92.9H4.7c-0.8,0-1.5,0.7-1.5,1.5c0,0.8,0.7,1.5,1.5,1.5h90.6c0.8,0,1.5-0.7,1.5-1.5  C96.8,93.5,96.1,92.9,95.3,92.9z M38.4,83.8h-0.1c-0.7,0-1.4-0.6-1.5-1.3L33,42.4c-0.1-0.8,0.5-1.5,1.3-1.6  c0.8-0.1,1.5,0.5,1.6,1.3l3.8,40.1C39.8,83,39.2,83.7,38.4,83.8z M51.5,82.3c0,0.8-0.7,1.5-1.5,1.5c-0.8,0-1.5-0.6-1.5-1.5V42.3  c0-0.8,0.6-1.5,1.5-1.5c0.8,0,1.5,0.7,1.5,1.5V82.3z M63.2,82.5c-0.1,0.8-0.7,1.3-1.5,1.3h-0.1c-0.8-0.1-1.4-0.8-1.3-1.6l3.8-40.1  c0.1-0.8,0.8-1.4,1.6-1.3c0.8,0.1,1.4,0.8,1.3,1.6L63.2,82.5z"></path>		<path d="M4.4,17.5c5.1,0,6-6.7,6-6.7s0.8,6.7,6,6.7c-5.1,0-6,6.7-6,6.7S9.5,17.5,4.4,17.5z"></path>		<path d="M77.5,10.9c5.1,0,6-6.7,6-6.7s0.8,6.7,6,6.7c-5.1,0-6,6.7-6,6.7S82.7,10.9,77.5,10.9z"></path>		<path d="M7.5,69c5.1,0,6-6.7,6-6.7s0.8,6.7,6,6.7c-5.1,0-6,6.7-6,6.7S12.6,69,7.5,69z"></path>	</g></svg>