<svg xmlns="http://www.w3.org/2000/svg" xmlns:xlink="http://www.w3.org/1999/xlink" x="0px" y="0px" viewBox="0 0 100 100" style="enable-background:new 0 0 100 100;" xml:space="preserve">	<g>		<g>			<path d="M92.4,5H7.6C5.4,5,3.5,6.9,3.5,9.1c0,2.3,1.9,4.1,4.1,4.1h1c-0.3-0.6-0.5-1.2-0.8-1.8C4.2,11.7,4,6.4,7.6,6.3   c1.5,0,2.6,1.2,2.6,2.6c0,0.7-0.3,1.5-0.9,1.9c0.4,0.8,0.7,1.6,1.1,2.4h78.7c0.4-0.8,0.8-1.6,1.1-2.5c-0.5-0.5-0.9-1.2-0.9-1.9   c0-1.5,1.2-2.6,2.6-2.6c3.4,0.1,3.5,5.1,0,5.3c-0.5,0.2-0.6,1.3-1,1.8h1.2C97.8,13.1,97.9,5.2,92.4,5z"></path>			<path d="M49.9,40.1c15.6,0,30.1-9.6,38.4-25H11.5C19.8,30.5,34.3,40.1,49.9,40.1z"></path>			<path d="M7.6,8c-1.1,0-1.1,1.7,0,1.8C8.8,9.8,8.8,8,7.6,8z"></path>			<path d="M92.9,9.3c0.5-1.1-1.1-1.8-1.6-0.7C90.9,9.6,92.4,10.3,92.9,9.3z"></path>			<path d="M23.5,64.8c-0.3-8.1-11.9-8.1-12.2,0C11.6,72.9,23.2,72.8,23.5,64.8z"></path>			<path d="M15.7,50.4c4.6-0.1,4.6-6.9,0-7C11.1,43.5,11.1,50.3,15.7,50.4z"></path>			<path d="M50.1,41.8C33.5,42,18.1,31.6,9.5,15H8.6L13,42.4c0.8-0.5,1.7-0.8,2.7-0.8c7.8,0.4,6.4,11.8-1.2,10.4l0.8,5.3   c4.9-1.4,10,2.5,9.9,7.6c0,4.2-3.3,7.7-7.5,7.8L21,92.8c0.2,1.3,1.3,2.2,2.6,2.2h52.7c1.3,0,2.4-1,2.6-2.2L91.1,15h-0.8   C81.8,31.4,66.6,41.7,50.1,41.8z M47.6,72.1c-0.5,0.1-0.8,0.9-0.5,1.3c5,6.9-0.3,17-8.8,16.8c-14.2-0.5-14.2-20.9,0-21.4   c0.8,0,1.8,0.1,1.7-0.9c-1.1-3.8,1.9-7.8,5.9-7.8C52.9,60.3,54.3,70.1,47.6,72.1z M32.4,48.6c4.6,0.1,4.6,6.9,0,7   C27.7,55.5,27.7,48.7,32.4,48.6z"></path>			<path d="M32.4,53.9c2.3,0,2.3-3.5,0-3.5C30.1,50.4,30.1,53.8,32.4,53.9z"></path>		</g>	</g></svg>