<svg xmlns="http://www.w3.org/2000/svg" xmlns:xlink="http://www.w3.org/1999/xlink" id="Layer_1" x="0px" y="0px" viewBox="0 0 100 100" style="enable-background:new 0 0 100 100;" xml:space="preserve"><g>	<path d="M4.3,1.1c-4.2,2-4.4,4.1-4.4,46.5v40.6l2.5,2.4l2.4,2.5H31c24.6,0,26.3,0.1,29,2c10.2,7.3,23.8,6.2,32.6-2.5  s9.8-22.3,2.5-32.6c-1.9-2.6-2-4.3-2-29V4.8l-2.5-2.4l-2.4-2.5L47.3,0C21.4,0,5.6,0.4,4.3,1.1z M87.9,4.5c1.5,1.1,2.2,2.5,2.2,5  v3.4H46.5H2.9v-3c0-1.7,0.9-3.9,2-5c1.9-1.9,3.3-2,41.4-2C80.3,2.9,86,3.1,87.9,4.5z M90.1,35.9v18.8l-4.2-2.1  c-6.6-3.3-16.8-3-23.1,0.7C51.3,60.1,47,74.1,52.8,86l2,4.1H30.4c-24,0-24.3,0-25.8-2.2C3.1,86,2.9,80.8,2.9,51.3V16.9h43.6h43.6  V35.9z M84.4,55.6c7.8,3.9,12.1,10.9,12.1,19.4c0,12.1-9.3,21.4-21.4,21.4c-17.4,0-27.5-19.1-17.8-33.5  C63.3,54,74.9,50.9,84.4,55.6z"></path>	<path d="M6.9,8.5c0,1.7,2.2,1.4,2.8-0.4c0.2-0.7-0.3-1.2-1.2-1.2S6.9,7.6,6.9,8.5z"></path>	<path d="M13.4,7.8c-0.7,1.2,1.2,2.4,2.5,1.6c1.1-0.7,0.4-2.5-1-2.5C14.4,6.9,13.8,7.3,13.4,7.8z"></path>	<path d="M20.1,8.1c0.6,1.8,2.8,2.1,2.8,0.4c0-0.9-0.7-1.6-1.6-1.6S19.9,7.4,20.1,8.1z"></path>	<path d="M35.2,8.1C35.5,9,39,9.5,46.8,9.7C56.3,9.9,58,9.7,58,8.4s-1.8-1.5-11.6-1.5C37.6,6.9,34.9,7.2,35.2,8.1z"></path>	<path d="M29.2,26.3C26.9,28.6,25,31,25,31.6c0,0.5,2.2,3.2,5,5.9c4,4,5.2,4.7,6.2,3.6c1.1-1,0.4-2-3.2-5.2L28.5,32l4.3-4.3  c4-4,4.5-5.7,1.7-5.7C33.9,22,31.5,23.9,29.2,26.3z"></path>	<path d="M45.1,31.1c-3.7,6.2-5.1,9.3-4.4,10c1.1,1.1,4.2-2.9,9.6-12.2c3-5.1,3.3-6.9,1.4-6.9C51,22,48,26.1,45.1,31.1z"></path>	<path d="M57,23.4c0,0.8,1.8,2.9,4.1,4.7l4,3.2L61,35.5c-5.8,6-4.3,7.7,2.1,2.4c2.7-2.2,4.9-4.8,4.9-5.7c0-1.9-7.9-10.2-9.7-10.2  C57.6,22,57,22.6,57,23.4z"></path>	<path d="M10.4,49c-0.4,0.6-0.3,1.6,0.3,2.2c0.6,0.6,1.2,0.6,1.7-0.2c0.4-0.6,0.3-1.6-0.3-2.2C11.5,48.2,10.9,48.2,10.4,49z"></path>	<path d="M17.4,49.1c-1.4,2.2,1.4,3,10.1,2.7c7.1-0.2,8.9-0.6,8.9-1.8s-1.8-1.6-9.2-1.8C21.3,48,17.8,48.3,17.4,49.1z"></path>	<path d="M40.5,49c-1.1,1.8,1,3.2,4.1,2.8c4-0.4,3.8-3.2-0.3-3.6C42.6,48,40.9,48.4,40.5,49z"></path>	<path d="M10.6,55.7C9.4,56.8,9.8,58,11.4,58c0.8,0,1.5-0.7,1.5-1.5C12.9,54.9,11.7,54.5,10.6,55.7z"></path>	<path d="M16.9,56.5c0,1.3,2.2,1.5,17,1.3c22.8-0.4,22.8-2.2,0-2.6C19.1,55,16.9,55.2,16.9,56.5z"></path>	<path d="M10.1,63.2c0.6,1.8,2.8,2.1,2.8,0.4c0-0.9-0.7-1.6-1.6-1.6C10.4,62,9.9,62.5,10.1,63.2z"></path>	<path d="M16.9,63.5c0,1.3,2,1.5,13.7,1.3c9.8-0.2,13.8-0.6,14.1-1.6C45,62.3,41.8,62,31,62C19,62,16.9,62.2,16.9,63.5z"></path>	<path d="M10.4,69c-0.4,0.6-0.3,1.6,0.3,2.2s1.2,0.6,1.7-0.2c0.4-0.6,0.3-1.6-0.3-2.2C11.5,68.2,10.9,68.2,10.4,69z"></path>	<path d="M17.4,69c-1.3,2.1,1.1,3.1,6.6,2.8c4-0.2,5.4-0.7,5.4-1.8C29.5,68.1,18.5,67.2,17.4,69z"></path>	<path d="M34.1,68.9c-2.2,1.4-0.3,3.1,3.4,3.1c1.9,0,3.7-0.5,4.1-1.1c0.8-1.4-1.4-2.9-4.1-2.9C36.4,68,34.9,68.4,34.1,68.9z"></path>	<path d="M10.6,75.7C9.4,76.8,9.8,78,11.4,78c0.8,0,1.5-0.7,1.5-1.5C12.9,74.9,11.7,74.5,10.6,75.7z"></path>	<path d="M16.9,76.5c0,1.3,1.8,1.5,11.6,1.5c8.8,0,11.5-0.3,11.2-1.3c-0.3-0.8-3.8-1.3-11.6-1.5C18.6,75,16.9,75.2,16.9,76.5z"></path>	<path d="M10.1,83.3c0.6,1.8,2.8,2.1,2.8,0.4c0-0.9-0.7-1.6-1.6-1.6C10.4,82.1,9.9,82.6,10.1,83.3z"></path>	<path d="M16.9,83.6c0,1.2,1.3,1.5,5.5,1.5s5.5-0.3,5.5-1.5s-1.3-1.5-5.5-1.5S16.9,82.4,16.9,83.6z"></path>	<path d="M66.4,67.1c-0.3,0.6,0.9,2.6,2.7,4.5l3.3,3.4L69,78.5c-2.6,2.7-3.1,3.8-2.2,4.7c0.9,0.9,2,0.4,4.7-2.2l3.5-3.4l3.5,3.4  c2.7,2.6,3.8,3.1,4.7,2.2c0.9-0.9,0.4-2-2.2-4.7L77.6,75l3.4-3.5c2.6-2.7,3.1-3.8,2.2-4.7c-0.9-0.9-2-0.4-4.7,2.2L75,72.4l-3.3-3.2  C68.1,65.7,67.5,65.5,66.4,67.1z"></path></g></svg>