<svg xmlns="http://www.w3.org/2000/svg" xmlns:xlink="http://www.w3.org/1999/xlink" x="0px" y="0px" viewBox="0 0 100 100" style="enable-background:new 0 0 100 100;" xml:space="preserve">	<g transform="matrix(1.25,0,0,1.25,6256.25,0.0)">		<g>			<path d="M-4995.7,32.4c1,1,2.6,1,3.6,0l5.2-5.3v41.4c0,2.7,2.2,4.8,4.9,4.8l33.4,0.3c2.7,0,4.9-2.1,4.9-4.8V27l5.7,5.3   c1,1,2.6,1,3.6,0l7.1-7.2c0.9-0.9,0.9-2.5,0-3.4l-14.4-14.1c-0.9-0.9-2.2-1.4-3.5-1.4l-12.4,0c0,5-5.3,8.9-10.7,6.5   c-2.5-1.1-4.1-3.7-4.1-6.5l0,0h-12.7c-1.3,0-2.6,0.5-3.5,1.4l-14.2,14c-0.9,0.9-0.9,2.4,0,3.4L-4995.7,32.4z M-4965.1,34.5   c0.1,0,0.1,0,0.2,0c8.4-6.1,11.2,4.8,8.4,8.4c-3,3.9-7.7,8.3-8.4,8.9c-0.1,0.1-0.1,0.1-0.2,0c-0.8-0.6-5.7-4.8-8.4-8.9   C-4976.8,37.8-4972.7,29-4965.1,34.5z"></path>		</g>	</g></svg>