<svg xmlns="http://www.w3.org/2000/svg" xmlns:xlink="http://www.w3.org/1999/xlink" x="0px" y="0px" viewBox="0 0 100 100" style="enable-background:new 0 0 100 100;" xml:space="preserve">	<g>		<path d="M77.8,23.9h-7.4c0.1,0.8,0.1,1.6,0.1,2.4c0,11.4-9.2,20.6-20.6,20.6c-11.4,0-20.6-9.2-20.6-20.6c0-0.9,0.1-1.7,0.1-2.4  h-6.1c-0.8,0-1.5,0.3-2.1,1L7.5,41.2l10.4,13.4l4.3-5v39.5c11.7,0,37.4,0,55.6-0.1V49.6l4.3,5l10.5-13.4L77.8,23.9z"></path>		<path d="M50,44.9c10.3,0,18.6-8.3,18.6-18.6c0-0.8,0-1.6-0.1-2.3c0,0,0-0.1,0-0.1h-3.8c-1.4,0-2.6,1.2-2.9,2.8  c-0.1,0.4-0.1,0.7-0.2,1.1l-10.6-6V16c3.5-0.5,6.1-3.5,6.1-7.1c0-3.9-3.2-7.1-7.1-7.1S42.9,5,42.9,9c0,0.5,0.4,1,1,1s1-0.4,1-1  c0-2.8,2.3-5.2,5.2-5.2c2.8,0,5.2,2.3,5.2,5.2c0,2.8-2.3,5.2-5.2,5.2c-0.5,0-1,0.4-1,1v6.7l-10.6,6c-0.1-0.4-0.2-0.7-0.2-1.1  c-0.3-1.6-1.5-2.8-2.9-2.8h-3.8c0,0,0,0.1,0,0.1c-0.1,0.7-0.1,1.5-0.1,2.3C31.4,36.6,39.7,44.9,50,44.9z M50,23.5l11,6.2  c-1.9,4.9-6.1,8.3-11,8.3c-4.8,0-9-3.4-10.9-8.3L50,23.5z"></path>		<path d="M22.2,91.1v3.5c0,2,1.6,3.6,3.6,3.6h48.4c2,0,3.6-1.6,3.6-3.6V91c-12.1,0-29,0.1-42.2,0.1C30.3,91.1,25.7,91.1,22.2,91.1z"></path>		<path d="M4.1,45.2c-1.2,1.4-1.2,3.6,0,4.9l6.7,7.9c1.2,1.3,3,1.3,4.2,0l1.6-1.9L6.1,42.8L4.1,45.2z"></path>		<path d="M95.9,45.2l-2-2.4L83.4,56.2L85,58c1.2,1.3,3,1.3,4.2,0l6.7-7.9C97,48.7,97,46.5,95.9,45.2z"></path>	</g></svg>