<svg xmlns="http://www.w3.org/2000/svg" xmlns:xlink="http://www.w3.org/1999/xlink" x="0px" y="0px" viewBox="0 0 100 100" style="enable-background:new 0 0 100 100;" xml:space="preserve"><path d="M21.6,0h52c0.6,0,1.1,0.3,1.5,0.6L88.5,14c0.4,0.4,0.6,0.9,0.6,1.5v73.8c0,2.9-1.2,5.6-3.1,7.6c-1.9,1.9-4.6,3.1-7.6,3.1 H21.6c-2.9,0-5.6-1.2-7.6-3.1c-2-2-3.1-4.6-3.1-7.6V10.7c0-2.9,1.2-5.6,3.1-7.6S18.6,0,21.6,0L21.6,0z M23.5,89.8 c-1.2,0-2.1-1-2.1-2.1c0-1.2,1-2.1,2.1-2.1h4.9c1.2,0,2.1,1,2.1,2.1c0,1.2-1,2.1-2.1,2.1H23.5z M34.7,89.8c-1.2,0-2.1-1-2.1-2.1 c0-1.2,1-2.1,2.1-2.1h41.9c1.2,0,2.1,1,2.1,2.1c0,1.2-1,2.1-2.1,2.1H34.7L34.7,89.8z M34.7,49.6c-1.2,0-2.1-1-2.1-2.1 c0-1.2,1-2.1,2.1-2.1h41.9c1.2,0,2.1,1,2.1,2.1c0,1.2-1,2.1-2.1,2.1H34.7L34.7,49.6z M34.7,59.7c-1.2,0-2.1-1-2.1-2.1s1-2.1,2.1-2.1 h41.9c1.2,0,2.1,1,2.1,2.1s-1,2.1-2.1,2.1H34.7L34.7,59.7z M34.7,69.7c-1.2,0-2.1-1-2.1-2.1c0-1.2,1-2.1,2.1-2.1h41.9 c1.2,0,2.1,1,2.1,2.1c0,1.2-1,2.1-2.1,2.1H34.7L34.7,69.7z M34.7,79.7c-1.2,0-2.1-1-2.1-2.1s1-2.1,2.1-2.1h41.9c1.2,0,2.1,1,2.1,2.1 s-1,2.1-2.1,2.1H34.7L34.7,79.7z M23.5,49.6c-1.2,0-2.1-1-2.1-2.1c0-1.2,1-2.1,2.1-2.1h4.9c1.2,0,2.1,1,2.1,2.1c0,1.2-1,2.1-2.1,2.1 H23.5z M23.5,59.7c-1.2,0-2.1-1-2.1-2.1c0-1.2,1-2.1,2.1-2.1h4.9c1.2,0,2.1,1,2.1,2.1c0,1.2-1,2.1-2.1,2.1H23.5z M23.5,69.7 c-1.2,0-2.1-1-2.1-2.1c0-1.2,1-2.1,2.1-2.1h4.9c1.2,0,2.1,1,2.1,2.1c0,1.2-1,2.1-2.1,2.1H23.5z M23.5,79.8c-1.2,0-2.1-1-2.1-2.1 s1-2.1,2.1-2.1h4.9c1.2,0,2.1,1,2.1,2.1s-1,2.1-2.1,2.1H23.5z M48.7,21.3c-1.2,0-2.1-1-2.1-2.1c0-1.2,1-2.1,2.1-2.1h12.3 c1.2,0,2.1,1,2.1,2.1c0,1.2-1,2.1-2.1,2.1H48.7z M48.7,37.9c-1.2,0-2.1-1-2.1-2.1s1-2.1,2.1-2.1h27.9c1.2,0,2.1,1,2.1,2.1 s-1,2.1-2.1,2.1H48.7L48.7,37.9z M48.7,29.6c-1.2,0-2.1-1-2.1-2.1c0-1.2,1-2.1,2.1-2.1h27.9c1.2,0,2.1,1,2.1,2.1 c0,1.2-1,2.1-2.1,2.1H48.7L48.7,29.6z M23.5,10.2H40c1.2,0,2.1,1,2.1,2.1v23.4c0,1.2-1,2.1-2.1,2.1H23.5c-1.2,0-2.1-1-2.1-2.1V12.3 C21.3,11.1,22.3,10.2,23.5,10.2z M37.8,14.5H25.6v19.1h12.2V14.5z M71.5,4.3H21.6c-1.8,0-3.4,0.7-4.5,1.9s-1.9,2.8-1.9,4.5v78.6 c0,1.8,0.7,3.4,1.9,4.5c1.2,1.2,2.8,1.9,4.5,1.9h56.8c1.8,0,3.4-0.7,4.5-1.9c1.2-1.2,1.9-2.8,1.9-4.5V17.6H73.6 c-1.2,0-2.1-1-2.1-2.1C71.5,15.5,71.5,4.3,71.5,4.3z M81.8,13.3l-6-6v6C75.8,13.3,81.8,13.3,81.8,13.3z"></path></svg>