<svg xmlns="http://www.w3.org/2000/svg" xmlns:xlink="http://www.w3.org/1999/xlink" x="0px" y="0px" viewBox="0 0 100 100" style="enable-background:new 0 0 100 100;" xml:space="preserve">	<g>		<path d="M13,1.8v66.8c3.5-1,6.9-4.8,6.9-8.3v-8.6h29.2v39.6H19.9v-6.9c0-3.5-3.3-7.3-6.9-8.3v22.1h75.7V1.8H13z M19.9,48.3V8.7  h29.2v39.6H19.9z M81.8,91.3H52.6V51.7h29.2V91.3z M81.8,48.3H52.6V8.7h29.2V48.3z"></path>		<path d="M23.3,84.4c0-6,6.1-12,12-12c-6,0-12-6.1-12-12c0,6-6.1,12-12,12C17.3,72.4,23.3,78.4,23.3,84.4z"></path>		<path d="M66.3,39.7c0-4.3,4.3-8.6,8.6-8.6c-4.3,0-8.6-4.3-8.6-8.6c0,4.3-4.3,8.6-8.6,8.6C62,31.1,66.3,35.4,66.3,39.7z"></path>	</g></svg>